<svg class="svg-icon" style="width: 1em; height: 1em;vertical-align: middle;fill: currentColor;overflow: hidden;" viewBox="0 0 1024 1024" version="1.1" xmlns="http://www.w3.org/2000/svg"><path d="M829.664 629.664a23.52 23.52 0 0 0-23.584 23.52v141.12a23.552 23.552 0 0 1-23.488 23.552H241.472a23.552 23.552 0 0 1-23.52-23.552v-141.12a23.52 23.52 0 0 0-47.072 0v141.12c0 38.944 31.648 70.624 70.624 70.624h541.088a70.72 70.72 0 0 0 70.624-70.624v-141.12a23.552 23.552 0 0 0-23.552-23.52m35.264-188.224a106.4 106.4 0 0 1-12.672 50.176l-0.32 0.544c-1.504 2.752-3.168 5.44-4.896 8.032l-0.448 0.672a106.304 106.304 0 0 1-28.256 28.224l-0.16 0.128a97.248 97.248 0 0 1-7.008 4.256l-2.016 1.184c-1.92 1.024-3.936 1.952-5.92 2.88-1.216 0.544-2.368 1.152-3.616 1.664-1.536 0.672-3.136 1.152-4.672 1.76-1.792 0.64-3.488 1.312-5.312 1.824a26.112 26.112 0 0 1-3.296 0.832c-2.304 0.64-4.608 1.248-6.944 1.728-0.512 0.128-1.12 0.16-1.664 0.256a106.464 106.464 0 0 1-37.408 0c-0.544-0.096-1.152-0.128-1.696-0.256a109.024 109.024 0 0 1-6.912-1.728c-1.088-0.256-2.24-0.512-3.328-0.832-1.76-0.512-3.488-1.184-5.28-1.824-1.568-0.608-3.168-1.088-4.672-1.76-1.216-0.512-2.4-1.12-3.584-1.664-2.016-0.928-4.032-1.856-5.984-2.88a104.096 104.096 0 0 1-8.992-5.44l-0.192-0.128a105.76 105.76 0 0 1-46.528-87.616 23.552 23.552 0 0 0-47.072 0c0 2.624 0.288 5.184 0.416 7.84a31.008 31.008 0 0 0-0.416 3.904c0 51.872-42.208 94.08-94.08 94.08s-94.08-42.208-94.08-94.08a22.4 22.4 0 0 0-0.416-3.904c0.16-2.656 0.416-5.216 0.416-7.84a23.552 23.552 0 0 0-47.072 0 105.728 105.728 0 0 1-46.528 87.616l-0.192 0.128c-2.24 1.504-4.576 2.944-6.944 4.256l-2.048 1.184a93.376 93.376 0 0 1-5.952 2.88c-1.184 0.544-2.4 1.152-3.616 1.664-1.568 0.608-3.168 1.12-4.736 1.696-1.76 0.64-3.488 1.312-5.28 1.824a26.624 26.624 0 0 1-3.328 0.832c-2.272 0.64-4.608 1.248-6.912 1.728-0.544 0.128-1.12 0.16-1.696 0.256a106.464 106.464 0 0 1-37.408 0c-0.544-0.096-1.12-0.128-1.664-0.256a104.736 104.736 0 0 1-6.944-1.728c-1.088-0.256-2.176-0.512-3.264-0.832-1.856-0.512-3.552-1.184-5.344-1.824-1.568-0.608-3.168-1.088-4.672-1.76-1.248-0.512-2.4-1.12-3.616-1.664a144 144 0 0 1-5.92-2.88l-2.016-1.184a104.096 104.096 0 0 1-6.976-4.256l-0.192-0.128a106.304 106.304 0 0 1-28.256-28.224l-0.448-0.64a104.64 104.64 0 0 1-4.896-8.096l-0.256-0.48a105.056 105.056 0 0 1-12.736-50.208l-0.032-0.672a105.728 105.728 0 0 1 11.584-47.488c1.536-2.976 4.48-11.936 5.152-13.568L234.08 236.16a47.456 47.456 0 0 1 43.84-30.016h468.128c19.552 0 36.768 11.808 43.968 30.336l58.176 143.264c0.704 1.728 3.744 10.752 5.184 13.632 7.52 14.688 11.488 30.976 11.552 47.488v0.576m30.4-69.472c-0.576-1.12-2.624-7.712-3.52-10.016l-58.048-142.88a93.6 93.6 0 0 0-87.68-60.032H277.952a93.376 93.376 0 0 0-87.584 59.712L132.16 361.984c-0.896 2.304-2.88 8.832-3.456 9.952a152.32 152.32 0 0 0-13.568 100.064l0.096 0.384c2.976 14.528 8.064 28.544 15.136 41.536l0.512 0.896c2.112 3.904 4.448 7.68 6.976 11.456l0.672 1.024c5.344 7.872 11.424 15.328 18.304 22.272 6.816 6.752 14.208 12.832 22.144 18.176l0.608 0.48c3.232 2.144 6.464 4.064 9.792 5.952 1.056 0.608 2.112 1.312 3.296 1.952 2.656 1.408 5.376 2.624 8.096 3.904 1.92 0.864 3.744 1.824 5.728 2.624 2.016 0.864 4.128 1.536 6.176 2.272 2.688 1.024 5.44 2.048 8.224 2.912 1.344 0.416 2.688 0.672 3.968 0.992 3.584 0.992 7.2 1.92 10.816 2.656l1.184 0.16a150.784 150.784 0 0 0 56.288 0l1.184-0.16c3.68-0.736 7.296-1.664 10.816-2.656 1.312-0.352 2.688-0.608 3.936-0.992 2.848-0.832 5.536-1.888 8.288-2.912 2.016-0.736 4.16-1.408 6.176-2.272 1.952-0.8 3.84-1.76 5.728-2.624 2.752-1.28 5.472-2.496 8.096-3.904 1.12-0.64 2.176-1.344 3.328-1.92 3.264-1.92 6.56-3.808 9.728-5.984l0.608-0.448c7.936-5.344 15.328-11.424 22.144-18.208 0.384-0.32 0.576-0.704 0.864-1.056 6.592-6.688 12.544-13.984 17.824-21.728a140.928 140.928 0 0 0 120.224 67.52c50.88 0 95.36-27.072 120.224-67.52 5.28 7.776 11.264 15.04 17.856 21.728 0.288 0.352 0.512 0.736 0.832 1.056 6.912 6.848 14.4 13.024 22.464 18.464l0.256 0.16c3.296 2.208 6.624 4.192 10.048 6.112 0.96 0.608 1.952 1.184 2.976 1.76 2.72 1.472 5.568 2.784 8.384 4.064 1.856 0.8 3.584 1.728 5.44 2.496 2.112 0.896 4.32 1.6 6.464 2.368 2.624 0.992 5.28 1.984 8 2.784 1.376 0.448 2.784 0.704 4.192 1.056 3.52 0.992 7.008 1.92 10.592 2.624l1.312 0.192a150.784 150.784 0 0 0 56.16-0.032l1.216-0.16a165.44 165.44 0 0 0 10.784-2.656c1.312-0.352 2.624-0.608 3.968-0.992 2.784-0.832 5.536-1.888 8.256-2.912 2.016-0.736 4.16-1.408 6.144-2.272 1.984-0.8 3.84-1.76 5.728-2.624 2.72-1.28 5.472-2.496 8.128-3.904 1.12-0.64 2.176-1.344 3.296-1.92 3.296-1.92 6.528-3.808 9.76-5.984l0.608-0.448c7.904-5.344 15.328-11.424 22.144-18.208 6.784-6.88 12.928-14.304 18.336-22.272l0.672-1.024c2.528-3.776 4.832-7.616 7.008-11.488l0.48-0.832c7.04-13.024 12.128-27.008 15.168-41.504l0.096-0.48a153.92 153.92 0 0 0-13.76-99.968m-171.584-24.64H300.256a23.584 23.584 0 0 0-23.52 23.488c0 12.96 10.592 23.52 23.52 23.52h423.488a23.52 23.52 0 0 0 0-47.008"  /></svg>