<svg id="Layer_1" data-name="Layer 1" xmlns="http://www.w3.org/2000/svg" viewBox="0 0 277.23 276.73"><defs><style>.cls-1{fill:#fbaf34;}.cls-1,.cls-4{stroke:#fff;stroke-miterlimit:10;}.cls-2{fill:#f1f2f2;}.cls-3{fill:#fff;}.cls-4{fill:none;stroke-width:6px;}</style></defs><rect class="cls-1" width="276.73" height="276.73" rx="22.5"/><path class="cls-2" d="M103.62,243.56a9.8,9.8,0,0,1-1.08,4.83,6.87,6.87,0,0,1-3.13,2.92,11.47,11.47,0,0,1-5,1H89.71V235.16H95a10.22,10.22,0,0,1,4.59,1,6.85,6.85,0,0,1,3,2.82A9.35,9.35,0,0,1,103.62,243.56Zm-3,.08a7.94,7.94,0,0,0-.66-3.46,4.28,4.28,0,0,0-1.94-2,6.86,6.86,0,0,0-3.15-.66h-2.4v12.43h2a6.16,6.16,0,0,0,4.63-1.58A6.51,6.51,0,0,0,100.67,243.64Z"/><path class="cls-2" d="M117,252.29h-9.7V235.16H117v2.36h-6.89v4.66h6.46v2.35h-6.46v5.38H117Z"/><path class="cls-2" d="M131.31,252.29l-1.68-4.76h-6.55l-1.67,4.76h-3l6.38-17.2h3.11l6.37,17.2Zm-2.4-7.16-1.63-4.7c-.07-.2-.16-.49-.27-.86s-.24-.74-.35-1.13l-.3-1c-.08.32-.17.68-.28,1.07s-.23.77-.33,1.12-.19.61-.24.79l-1.64,4.7Z"/><path class="cls-2" d="M136.56,252.29V235.16h2.81V249.9h7.28v2.39Z"/><path class="cls-2" d="M159.3,252.29h-9.7V235.16h9.7v2.36h-6.89v4.66h6.46v2.35h-6.46v5.38h6.89Z"/><path class="cls-2" d="M167.81,235.16a10.55,10.55,0,0,1,3.66.54,4.17,4.17,0,0,1,2.16,1.65,5.07,5.07,0,0,1,.71,2.79,4.65,4.65,0,0,1-.47,2.16,4.34,4.34,0,0,1-1.23,1.48,6.79,6.79,0,0,1-1.63.93l4.86,7.58H172.7l-4.15-6.86h-2.74v6.86H163V235.16Zm-.19,2.35h-1.81v5.59h1.94a4.4,4.4,0,0,0,2.83-.73,2.59,2.59,0,0,0,.89-2.14,2.34,2.34,0,0,0-.95-2.1A5.36,5.36,0,0,0,167.62,237.51Z"/><path class="cls-2" d="M188.21,247.62a4.56,4.56,0,0,1-.74,2.63,4.77,4.77,0,0,1-2.13,1.69,8.52,8.52,0,0,1-3.31.58,14.8,14.8,0,0,1-1.8-.1,12.76,12.76,0,0,1-1.61-.31,10.29,10.29,0,0,1-1.39-.5V249a21.31,21.31,0,0,0,2.35.83,9.7,9.7,0,0,0,2.62.37,4.94,4.94,0,0,0,1.81-.29,2.31,2.31,0,0,0,1.07-.82,2.19,2.19,0,0,0,.36-1.25,2,2,0,0,0-.41-1.28,4,4,0,0,0-1.24-1,20.57,20.57,0,0,0-2.08-1,12.5,12.5,0,0,1-1.61-.76,6.56,6.56,0,0,1-1.35-1,4.35,4.35,0,0,1-.95-1.39,4.62,4.62,0,0,1-.36-1.89,4.32,4.32,0,0,1,.71-2.49,4.47,4.47,0,0,1,2-1.59,7.39,7.39,0,0,1,3-.55,10.86,10.86,0,0,1,2.54.29A13.72,13.72,0,0,1,188,236l-.89,2.27a18.46,18.46,0,0,0-2.05-.7,8.05,8.05,0,0,0-2-.26,3.78,3.78,0,0,0-1.51.27,2.05,2.05,0,0,0-.94.76,2,2,0,0,0-.33,1.15,2.14,2.14,0,0,0,.37,1.27,3.49,3.49,0,0,0,1.15.92c.52.28,1.19.59,2,.94a14.54,14.54,0,0,1,2.41,1.23,4.65,4.65,0,0,1,1.52,1.54A4.39,4.39,0,0,1,188.21,247.62Z"/><path class="cls-3" d="M168.54,79c.65,0,4.44.23,6.49,5.36,2.25,5.62,13.46,29.56,13.46,29.56a10.31,10.31,0,0,1,.3,7,9.36,9.36,0,0,1-1.38,2.64,13.34,13.34,0,0,1-11.88,7.32h-.12a13.32,13.32,0,0,1-11.76-7.32c-.19.3-4.53,7.09-12.61,7.09h-.35c-7.85-.19-12-6.61-12.24-7.08a14.47,14.47,0,0,1-12.66,7.57h-.3a14.42,14.42,0,0,1-12.36-7.56,14,14,0,0,1-12.2,7.44,11.81,11.81,0,0,1-1.18-.06c-7.15-.65-10.61-6.91-10.86-7.38a12.91,12.91,0,0,1-1-9.36l13.68-31s1.44-3.72,7.32-4.2h59.61m0-6H108.68l-.24,0c-8.66.71-11.69,6.33-12.32,7.76h0l-4.19,9.49-9.49,21.47-.18.41-.12.44a19.16,19.16,0,0,0-.34,8.58,18.61,18.61,0,0,0,1.75,5.09l0,0,0,0c.52,1,5.38,9.62,15.62,10.55.57,0,1.15.08,1.72.08a19.64,19.64,0,0,0,12.21-4.29,20.38,20.38,0,0,0,12.22,4.41h.43a20.38,20.38,0,0,0,13-4.66,20.12,20.12,0,0,0,11.8,4.17h.5a20.48,20.48,0,0,0,12.23-4.15,19.28,19.28,0,0,0,12.09,4.38h.17a19.21,19.21,0,0,0,17-10.17,15.25,15.25,0,0,0,1.95-3.89,16.22,16.22,0,0,0-.41-11.06l-.07-.17-.08-.17c-.11-.24-11.15-23.85-13.32-29.25-2.69-6.73-8-9.13-12.06-9.13Z"/><path class="cls-4" d="M97.41,140.91v31.2c-4.51-.29-7.79,3.43-7.44,6.72.31,2.93,3.52,5.65,7.44,5.28h25.44v-25s-.24-4.32,3.84-4.8,21.36-.48,21.36-.48,5.52.72,5.52,5.52v24.72H180a5.52,5.52,0,1,0,0-11V138.75"/></svg>