<svg class="svg-icon" style="width: 1em; height: 1em;vertical-align: middle;fill: currentColor;overflow: hidden;" viewBox="0 0 1024 1024" version="1.1" xmlns="http://www.w3.org/2000/svg"><path d="M853.265114 959.94244H640.012791c-17.702808 0-32.02878-14.325972-32.02878-32.02878V661.245928H416.015989v266.667732c0 17.702808-14.325972 32.02878-32.02878 32.02878H170.734886c-17.702808 0-32.02878-14.325972-32.02878-32.02878V522.590986h-74.69971c-13.098031 0-24.865794-7.981613-29.675228-20.158689-4.911762-12.177076-1.841911-25.991406 7.674628-34.996302L489.897072 40.82902c12.381733-11.767763 31.721795-11.767763 44.103528 0l447.993604 426.606975c12.791046 12.177076 13.302688 32.438093 1.125612 45.229139-12.177076 12.791046-32.438093 13.20036-45.229139 1.125612L512 108.161087 144.027181 458.635755h26.707705c17.702808 0 32.02878 14.325972 32.028779 32.02878v405.322674H352.060757V629.319476c0-17.702808 14.325972-32.02878 32.02878-32.028779h256.025582c17.702808 0 32.02878 14.325972 32.02878 32.028779v266.667733h149.297092V511.948836c0-17.702808 14.325972-32.02878 32.02878-32.02878s32.02878 14.325972 32.02878 32.02878v415.964824c-0.204657 17.702808-14.530629 32.02878-32.233437 32.02878z" fill="" /></svg>