<svg class="svg-icon" style="width: 1em;height: 1em;vertical-align: middle;fill: currentColor;overflow: hidden;" viewBox="0 0 1024 1024" version="1.1" xmlns="http://www.w3.org/2000/svg"><path d="M156.3 377.9v407.8c0 44.6 36.2 80.8 80.8 80.8h551c44.6 0 80.8-36.2 80.8-80.8v-87.2c0-16.2 13.2-29.4 29.4-29.4s29.4 13.2 29.4 29.4v87.2c0 77.1-62.5 139.6-139.6 139.6h-551c-77.1 0-139.6-62.5-139.6-139.6V348.5c0-4.7 1.1-9.2 3.1-13.1l0.3-0.8 72.6-172.8c16-38.2 53.4-63 94.8-63H757c41.4 0 78.8 24.9 94.8 63l72.6 172.8c6.7 15.9-0.8 34.2-16.7 40.9-5.9 2-5.9 2-12.1 2.4H156.3z m697.8-58.8l-56.5-134.6c-6.9-16.4-22.9-27-40.6-27H268.3c-17.7 0-33.8 10.6-40.6 27l-56.6 134.6h683z"  /><path d="M666.8 576.3l-61.9-63.9c-11.3-11.7-11-30.3 0.7-41.6s30.3-11 41.6 0.7l88.8 91.8c17.8 18.4 17.9 47.6 0.3 66.2l-88.9 93.3c-11.3 11.6-29.9 11.9-41.6 0.6-11.5-11.2-11.9-29.5-1-41.2l44.9-47.1h-339c-16.2 0-29.4-13.2-29.4-29.4s13.2-29.4 29.4-29.4h356.1z"  /></svg>