<svg id="Layer_1" data-name="Layer 1" xmlns="http://www.w3.org/2000/svg" viewBox="0 0 277.73 277.73"><defs><style>.cls-1{fill:#2b3990;stroke-miterlimit:10;}.cls-1,.cls-4{stroke:#fff;}.cls-2{fill:#f1f2f2;}.cls-3{fill:#fff;}.cls-4{fill:none;stroke-linecap:round;stroke-linejoin:round;stroke-width:8px;}</style></defs><rect class="cls-1" x="0.5" y="0.5" width="276.73" height="276.73" rx="22.5"/><path class="cls-2" d="M106.43,248.47V231.33h2.81v17.14Z"/><path class="cls-2" d="M119.69,248.47h-2.82V233.73h-5v-2.4H124.7v2.4h-5Z"/><path class="cls-2" d="M137,248.47h-9.7V231.33H137v2.37h-6.89v4.65h6.46v2.36h-6.46v5.38H137Z"/><path class="cls-2" d="M148.1,248.47l-4.93-14.3h-.11c0,.32.05.76.08,1.31s.06,1.14.09,1.78,0,1.24,0,1.81v9.4h-2.55V231.33h3.95L149.4,245h.07l4.9-13.68h3.95v17.14h-2.68v-9.54c0-.52,0-1.09,0-1.69s0-1.19.06-1.73.06-1,.08-1.32h-.11l-5.1,14.28Z"/><path class="cls-2" d="M172.71,243.8a4.64,4.64,0,0,1-.74,2.63,4.74,4.74,0,0,1-2.14,1.69,8.48,8.48,0,0,1-3.31.58,14.75,14.75,0,0,1-1.79-.1,12.42,12.42,0,0,1-1.61-.31,9.39,9.39,0,0,1-1.39-.5v-2.65a20.41,20.41,0,0,0,2.34.83,9.76,9.76,0,0,0,2.63.36,4.89,4.89,0,0,0,1.8-.28,2.29,2.29,0,0,0,1.08-.82,2.26,2.26,0,0,0,.35-1.25,2,2,0,0,0-.41-1.28,3.86,3.86,0,0,0-1.23-1,21.65,21.65,0,0,0-2.08-.95,11.9,11.9,0,0,1-1.61-.76,6.62,6.62,0,0,1-1.36-1,4.44,4.44,0,0,1-1-1.4,4.71,4.71,0,0,1-.35-1.88,4.31,4.31,0,0,1,.7-2.49,4.5,4.5,0,0,1,2-1.59,7.39,7.39,0,0,1,3-.55,10.41,10.41,0,0,1,2.54.29,13.33,13.33,0,0,1,2.33.79l-.89,2.27a17.79,17.79,0,0,0-2-.7,8,8,0,0,0-2-.26,3.74,3.74,0,0,0-1.51.27,2,2,0,0,0-1.27,1.91,2,2,0,0,0,.37,1.26,3.29,3.29,0,0,0,1.15.93c.52.28,1.19.59,2,.94a15,15,0,0,1,2.41,1.23,4.61,4.61,0,0,1,1.51,1.54A4.39,4.39,0,0,1,172.71,243.8Z"/><path class="cls-3" d="M198,142a6.2,6.2,0,0,1,3.51,1.07,6.62,6.62,0,0,1,2.29,7.76,126.39,126.39,0,0,1-14.94,15.45c-2.88,2.52-9.83,11.79-20.62,13a311.44,311.44,0,0,1-34.1,1.56c-6.54,0-12.21-.11-16.18-.14l-9.36,13.7-35.17-.09,30.08-51.37h54a5,5,0,0,1,0,9.71H132.23a5,5,0,0,0-.18,9.35h36a38.6,38.6,0,0,0,6-1.71c10.92-4.13,17.39-12.43,20.55-17.35A6.72,6.72,0,0,1,198,142m0-8a14.73,14.73,0,0,0-7.5,2.07,7.91,7.91,0,0,0-2.65,2.56c-3.06,4.75-8.42,11.07-16.65,14.18a29.4,29.4,0,0,1-3.49,1.08,13.14,13.14,0,0,0,1.49-5.61,13,13,0,0,0-9.63-13.05,8.26,8.26,0,0,0-2.11-.28H103.54a8,8,0,0,0-6.91,4l-15,25.69-15,25.68a8,8,0,0,0,6.88,12l35.17.09h0a8,8,0,0,0,6.61-3.48l5.87-8.6,1.08-1.58h.22c3.28,0,7.36.09,11.76.09a314.34,314.34,0,0,0,35-1.61c11.72-1.33,19.71-9.55,23.54-13.5.55-.56,1.17-1.2,1.43-1.43A135.55,135.55,0,0,0,210,155.84a8.54,8.54,0,0,0,1.29-2.25,14.55,14.55,0,0,0-5.27-17.16,14.18,14.18,0,0,0-8-2.47Z"/><polygon class="cls-4" points="111.86 75.16 139.27 60.4 165.86 75.16 165.86 108.64 139.51 120.16 111.86 107.56 111.86 75.16"/><path class="cls-4" d="M139.51,87l26.35-11.88Z"/><polyline class="cls-4" points="139.51 120.16 139.51 87.04 111.86 75.16"/></svg>