<svg id="Layer_1" data-name="Layer 1" xmlns="http://www.w3.org/2000/svg" viewBox="0 0 277.73 277.73"><defs><style>.cls-1{fill:#84b14c;stroke-miterlimit:10;}.cls-1,.cls-4{stroke:#fff;}.cls-2{fill:#f1f2f2;}.cls-3{fill:#fff;}.cls-4{fill:none;stroke-linejoin:round;stroke-width:6px;}</style></defs><rect class="cls-1" x="0.5" y="0.5" width="276.73" height="276.73" rx="22.5"/><path class="cls-2" d="M113,239.88a12.29,12.29,0,0,1-.49,3.6,7.85,7.85,0,0,1-1.5,2.8,6.5,6.5,0,0,1-2.49,1.8,9.26,9.26,0,0,1-3.52.62,9.4,9.4,0,0,1-3.56-.62,6.46,6.46,0,0,1-2.5-1.8,7.66,7.66,0,0,1-1.48-2.8,12.85,12.85,0,0,1-.49-3.63,11.4,11.4,0,0,1,.87-4.62,6.7,6.7,0,0,1,2.66-3.07,8.55,8.55,0,0,1,4.52-1.09,8.31,8.31,0,0,1,4.45,1.09,6.69,6.69,0,0,1,2.65,3.07A11.31,11.31,0,0,1,113,239.88Zm-13.07,0a9.84,9.84,0,0,0,.54,3.43,4.53,4.53,0,0,0,1.65,2.22,5.71,5.71,0,0,0,5.76,0,4.52,4.52,0,0,0,1.64-2.22,10.1,10.1,0,0,0,.52-3.43,8.09,8.09,0,0,0-1.2-4.71,4.32,4.32,0,0,0-3.82-1.71,4.94,4.94,0,0,0-2.88.78,4.43,4.43,0,0,0-1.67,2.21A9.76,9.76,0,0,0,99.89,239.88Z"/><path class="cls-2" d="M121.46,231.34a10.55,10.55,0,0,1,3.66.54,4.17,4.17,0,0,1,2.16,1.65,5.07,5.07,0,0,1,.71,2.79,4.65,4.65,0,0,1-.47,2.16,4.34,4.34,0,0,1-1.23,1.48,6.79,6.79,0,0,1-1.63.93l4.86,7.58h-3.17l-4.15-6.86h-2.74v6.86h-2.82V231.34Zm-.19,2.35h-1.81v5.59h1.94a4.4,4.4,0,0,0,2.83-.73,2.61,2.61,0,0,0,.89-2.14,2.34,2.34,0,0,0-1-2.1A5.39,5.39,0,0,0,121.27,233.69Z"/><path class="cls-2" d="M145.88,239.74a9.8,9.8,0,0,1-1.08,4.83,6.85,6.85,0,0,1-3.12,2.92,11.47,11.47,0,0,1-5,1H132V231.34h5.28a10.22,10.22,0,0,1,4.59.95,6.9,6.9,0,0,1,3,2.82A9.35,9.35,0,0,1,145.88,239.74Zm-2.94.08a7.94,7.94,0,0,0-.66-3.46,4.25,4.25,0,0,0-1.95-2,6.78,6.78,0,0,0-3.14-.66h-2.41v12.43h2a6.17,6.17,0,0,0,4.63-1.58A6.51,6.51,0,0,0,142.94,239.82Z"/><path class="cls-2" d="M159.27,248.47h-9.71V231.34h9.71v2.36h-6.9v4.65h6.46v2.36h-6.46v5.38h6.9Z"/><path class="cls-2" d="M167.77,231.34a10.65,10.65,0,0,1,3.67.54,4.19,4.19,0,0,1,2.15,1.65,5.07,5.07,0,0,1,.71,2.79,4.65,4.65,0,0,1-.47,2.16A4.34,4.34,0,0,1,172.6,240a6.79,6.79,0,0,1-1.63.93l4.87,7.58h-3.18l-4.15-6.86h-2.74v6.86H163V231.34Zm-.18,2.35h-1.82v5.59h1.94a4.4,4.4,0,0,0,2.83-.73,2.61,2.61,0,0,0,.89-2.14,2.36,2.36,0,0,0-.94-2.1A5.41,5.41,0,0,0,167.59,233.69Z"/><path class="cls-2" d="M188.18,243.8a4.57,4.57,0,0,1-.75,2.63,4.71,4.71,0,0,1-2.13,1.69,8.52,8.52,0,0,1-3.31.58,14.63,14.63,0,0,1-1.79-.1,12.58,12.58,0,0,1-1.62-.31,9.68,9.68,0,0,1-1.38-.5v-2.65a20.41,20.41,0,0,0,2.34.83,9.7,9.7,0,0,0,2.62.37,4.94,4.94,0,0,0,1.81-.29,2.26,2.26,0,0,0,1.07-.82,2.19,2.19,0,0,0,.36-1.25,2,2,0,0,0-.41-1.28,4,4,0,0,0-1.24-1,20.57,20.57,0,0,0-2.08-.95,11.77,11.77,0,0,1-1.6-.76,6.62,6.62,0,0,1-1.36-1,4.28,4.28,0,0,1-1-1.4,4.54,4.54,0,0,1-.35-1.88,4.31,4.31,0,0,1,.7-2.49,4.53,4.53,0,0,1,2-1.59,7.39,7.39,0,0,1,3-.55,10.35,10.35,0,0,1,2.54.29,13.72,13.72,0,0,1,2.34.79l-.89,2.27a18.46,18.46,0,0,0-2-.7,8.05,8.05,0,0,0-2-.26,3.78,3.78,0,0,0-1.51.27,2.05,2.05,0,0,0-.94.76,2,2,0,0,0-.32,1.15,2.14,2.14,0,0,0,.36,1.27,3.49,3.49,0,0,0,1.15.92c.52.28,1.19.59,2,.94a14.54,14.54,0,0,1,2.41,1.23,4.65,4.65,0,0,1,1.52,1.54A4.39,4.39,0,0,1,188.18,243.8Z"/><path class="cls-3" d="M100.07,74.92l2.4,13.92h97.42c1.09,0,5.75.19,4.82,3.49-1.17,4.13-14.88,42-14.88,42s-.09,1.77-3.34,1.77H112.67l2.4,15.39s1,3.79,3.48,3.79a3,3,0,0,0,.76-.1c3.76.09,50,.1,66.13.1H191l-.07,7.91H119s-.21,0-.56,0c-2,0-9.08-.74-11.32-10.76-2.64-11.76-14.28-69.12-14.28-69.12l-13-.24V74.92h20.16m5.05-6H73.91V89l5.88.11,8.15.16c2.86,14,11.14,54.69,13.35,64.52,2.56,11.39,10.55,15.45,17.18,15.45l.78,0h77.61l0-6,.06-7.9,0-6H185.44c-13.57,0-56,0-64.66-.08l-1.11-7.1h66.82c5.58,0,8.3-3.22,9.09-6,1.84-5.1,13.73-38,14.9-42.11a8.16,8.16,0,0,0-1.26-7.28c-2.53-3.34-6.93-3.84-9.33-3.84H107.52L106,73.9l-.86-5Z"/><polyline class="cls-4" points="131.15 110.97 145.19 124.83 169.84 99.45"/><path class="cls-3" d="M122,181.48a9,9,0,1,1-9,9,9,9,0,0,1,9-9m0-6a15,15,0,1,0,15,15,15,15,0,0,0-15-15Z"/><path class="cls-3" d="M175.44,181.48a9,9,0,1,1-9,9,9,9,0,0,1,9-9m0-6a15,15,0,1,0,15,15,15,15,0,0,0-15-15Z"/></svg>