<svg class="svg-icon" style="width: 1em; height: 1em;vertical-align: middle;fill: currentColor;overflow: hidden;" viewBox="0 0 1024 1024" version="1.1" xmlns="http://www.w3.org/2000/svg"><path d="M512.199883 512.299824m-447.737654 0a447.737654 447.737654 0 1 0 895.475308 0 447.737654 447.737654 0 1 0-895.475308 0Z" fill="#FFC600" /><path d="M512.199883 222.469647c-16.590279 0-29.982432 13.392153-29.982432 29.982432v399.765762c0 16.590279 13.392153 29.982432 29.982432 29.982432s29.982432-13.392153 29.982432-29.982432v-399.765762c0-16.490338-13.492094-29.982432-29.982432-29.982432z" fill="#FFFFFF" /><path d="M512.199883 772.14757m-29.982432 0a29.982432 29.982432 0 1 0 59.964864 0 29.982432 29.982432 0 1 0-59.964864 0Z" fill="#FFFFFF" /></svg>