<svg id="Layer_1" data-name="Layer 1" xmlns="http://www.w3.org/2000/svg" viewBox="0 0 276.73 276.73"><defs><style>.cls-1{fill:#d94157;}.cls-1,.cls-3{stroke:#fff;stroke-miterlimit:10;}.cls-2{fill:#f1f2f2;}.cls-3{fill:none;stroke-width:4px;}</style></defs><rect class="cls-1" width="276.73" height="276.73" rx="22.5"/><path class="cls-2" d="M105.82,243.3a4.64,4.64,0,0,1-.74,2.63,4.74,4.74,0,0,1-2.14,1.69,8.48,8.48,0,0,1-3.31.58,14.75,14.75,0,0,1-1.79-.1,12.42,12.42,0,0,1-1.61-.31,9.39,9.39,0,0,1-1.39-.5v-2.65a20.41,20.41,0,0,0,2.34.83,9.77,9.77,0,0,0,2.63.37,4.84,4.84,0,0,0,1.8-.29,2.29,2.29,0,0,0,1.08-.82,2.26,2.26,0,0,0,.35-1.25,2,2,0,0,0-.41-1.28,3.86,3.86,0,0,0-1.23-1,21.65,21.65,0,0,0-2.08-.95,11.9,11.9,0,0,1-1.61-.76,6.62,6.62,0,0,1-1.36-1,4.44,4.44,0,0,1-.95-1.4,4.71,4.71,0,0,1-.35-1.88,4.39,4.39,0,0,1,.7-2.49,4.5,4.5,0,0,1,2-1.59,7.39,7.39,0,0,1,3-.55,10.41,10.41,0,0,1,2.54.29,13.33,13.33,0,0,1,2.33.79l-.89,2.27a17.79,17.79,0,0,0-2.05-.7,8,8,0,0,0-2-.26,3.74,3.74,0,0,0-1.51.27,2,2,0,0,0-1.27,1.91,2,2,0,0,0,.37,1.26,3.38,3.38,0,0,0,1.15.93c.52.28,1.19.59,2,.94a15,15,0,0,1,2.41,1.23,4.61,4.61,0,0,1,1.51,1.54A4.39,4.39,0,0,1,105.82,243.3Z"/><path class="cls-2" d="M115.07,248h-2.83V233.23h-5v-2.39h12.84v2.39h-5Z"/><path class="cls-2" d="M137.89,239.38a12.29,12.29,0,0,1-.49,3.6,7.85,7.85,0,0,1-1.5,2.8,6.5,6.5,0,0,1-2.49,1.8,9.26,9.26,0,0,1-3.52.62,9.4,9.4,0,0,1-3.56-.62,6.46,6.46,0,0,1-2.5-1.8,7.66,7.66,0,0,1-1.48-2.8,12.85,12.85,0,0,1-.49-3.63,11.4,11.4,0,0,1,.87-4.62,6.7,6.7,0,0,1,2.66-3.07,8.55,8.55,0,0,1,4.52-1.09,8.31,8.31,0,0,1,4.45,1.09,6.69,6.69,0,0,1,2.65,3.07A11.31,11.31,0,0,1,137.89,239.38Zm-13.07,0a9.84,9.84,0,0,0,.54,3.43A4.53,4.53,0,0,0,127,245a5.71,5.71,0,0,0,5.76,0,4.52,4.52,0,0,0,1.64-2.22,10.1,10.1,0,0,0,.52-3.43,8.09,8.09,0,0,0-1.2-4.71,4.32,4.32,0,0,0-3.82-1.71,4.94,4.94,0,0,0-2.88.78,4.43,4.43,0,0,0-1.67,2.21A9.76,9.76,0,0,0,124.82,239.38Z"/><path class="cls-2" d="M148.88,233a5.27,5.27,0,0,0-2.2.44,4.49,4.49,0,0,0-1.64,1.29,6.2,6.2,0,0,0-1,2,10.56,10.56,0,0,0,.21,6.09A4.55,4.55,0,0,0,146,245a5,5,0,0,0,2.89.77,10.61,10.61,0,0,0,2.13-.21,19.52,19.52,0,0,0,2.14-.57v2.39A10.9,10.9,0,0,1,151,248a13.9,13.9,0,0,1-2.46.19,8,8,0,0,1-4.37-1.09A6.54,6.54,0,0,1,141.6,244a11.82,11.82,0,0,1-.85-4.64,11.17,11.17,0,0,1,.54-3.56,7.83,7.83,0,0,1,1.57-2.78,6.94,6.94,0,0,1,2.55-1.83,8.75,8.75,0,0,1,3.48-.64,11.28,11.28,0,0,1,2.53.29,12,12,0,0,1,2.32.81l-1,2.32a16.51,16.51,0,0,0-1.87-.72A6.48,6.48,0,0,0,148.88,233Z"/><path class="cls-2" d="M169.85,248h-3.24l-5.32-7.77-1.69,1.37V248h-2.81V230.84h2.81V239c.34-.43.69-.85,1-1.26s.7-.85,1.06-1.27l4.81-5.66h3.19l-6.4,7.51Z"/><path class="cls-2" d="M182,243.3a4.64,4.64,0,0,1-.74,2.63,4.77,4.77,0,0,1-2.13,1.69,8.54,8.54,0,0,1-3.32.58,14.75,14.75,0,0,1-1.79-.1,12.42,12.42,0,0,1-1.61-.31,9.82,9.82,0,0,1-1.39-.5v-2.65a20.6,20.6,0,0,0,2.35.83,9.64,9.64,0,0,0,2.62.37,4.94,4.94,0,0,0,1.81-.29,2.31,2.31,0,0,0,1.07-.82,2.18,2.18,0,0,0,.35-1.25,2,2,0,0,0-.41-1.28,3.86,3.86,0,0,0-1.23-1,21.65,21.65,0,0,0-2.08-.95,12.5,12.5,0,0,1-1.61-.76,6.91,6.91,0,0,1-1.36-1,4.62,4.62,0,0,1-1-1.4,4.71,4.71,0,0,1-.35-1.88,4.32,4.32,0,0,1,.71-2.49,4.41,4.41,0,0,1,2-1.59,7.39,7.39,0,0,1,3-.55,10.35,10.35,0,0,1,2.54.29,13.72,13.72,0,0,1,2.34.79l-.89,2.27a18.59,18.59,0,0,0-2.06-.7,7.91,7.91,0,0,0-2-.26,3.78,3.78,0,0,0-1.51.27,2,2,0,0,0-1.27,1.91,2,2,0,0,0,.37,1.26,3.38,3.38,0,0,0,1.15.93c.52.28,1.19.59,2,.94a15,15,0,0,1,2.41,1.23,4.61,4.61,0,0,1,1.51,1.54A4.3,4.3,0,0,1,182,243.3Z"/><polygon class="cls-3" points="76.8 62.35 84.72 62.35 84.72 85.75 84.72 190.87 76.8 190.87 76.8 62.35"/><polygon class="cls-3" points="192 62.35 199.92 62.35 199.92 85.75 199.92 190.87 192 190.87 192 62.35"/><rect class="cls-3" x="84.72" y="85.75" width="107.28" height="7.92"/><rect class="cls-3" x="84.72" y="128.85" width="107.28" height="7.92"/><rect class="cls-3" x="84.72" y="171.55" width="107.28" height="7.92"/><rect class="cls-3" x="98.4" y="143.95" width="82.32" height="27.6"/><rect class="cls-3" x="107.1" y="143.95" width="10.92" height="9.84"/><rect class="cls-3" x="133.86" y="143.95" width="10.92" height="9.84"/><rect class="cls-3" x="161.1" y="143.95" width="10.92" height="9.84"/><rect class="cls-3" x="125.88" y="143.95" width="26.88" height="27.6"/><rect class="cls-3" x="98.4" y="101.25" width="82.32" height="27.6"/><rect class="cls-3" x="107.1" y="101.25" width="10.92" height="9.84"/><rect class="cls-3" x="133.86" y="101.25" width="10.92" height="9.84"/><rect class="cls-3" x="161.1" y="101.25" width="10.92" height="9.84"/><rect class="cls-3" x="125.88" y="101.25" width="26.88" height="27.6"/><rect class="cls-3" x="98.4" y="58.15" width="82.32" height="27.6"/><rect class="cls-3" x="107.1" y="58.15" width="10.92" height="9.84"/><rect class="cls-3" x="133.86" y="58.15" width="10.92" height="9.84"/><rect class="cls-3" x="161.1" y="58.15" width="10.92" height="9.84"/><rect class="cls-3" x="125.88" y="58.15" width="26.88" height="27.6"/></svg>