<svg class="svg-icon" style="width: 1em; height: 1em;vertical-align: middle;fill: currentColor;overflow: hidden;" viewBox="0 0 1024 1024" version="1.1" xmlns="http://www.w3.org/2000/svg"><path d="M477.86496 0h68.26496c150.6816 93.952 311.4752 177.77152 477.87008 256v768H0V256C166.39488 177.77152 327.1936 93.952 477.86496 0z m-14.93504 119.92576c-112.86528 64.96256-237.44512 151.02976-375.46496 204.8v580.26496h819.2V324.72576c-134.85056-9.29792-347.7504-260.04992-443.73504-204.8z"  /><path d="M189.86496 495.39072h102.4v-102.4h-102.4v102.4z m153.6 0h102.4v-102.4h-102.4v102.4z m-153.6 153.6h102.4v-102.4h-102.4v102.4z m153.6 0h102.4v-102.4h-102.4v102.4z m153.6 0h102.4v-102.4h-102.4v102.4z m-307.2 153.6h102.4v-102.4h-102.4v102.4z m153.6 0h102.4v-102.4h-102.4v102.4z m153.6 0h102.4v-102.4h-102.4v102.4z m153.6 0h102.4v-102.4h-102.4v102.4z"  /><path d="M189.86496 392.99072h102.4v102.4h-102.4v-102.4zM343.46496 392.99072h102.4v102.4h-102.4v-102.4zM189.86496 546.59072h102.4v102.4h-102.4v-102.4zM343.46496 546.59072h102.4v102.4h-102.4v-102.4zM497.06496 546.59072h102.4v102.4h-102.4v-102.4zM189.86496 700.19072h102.4v102.4h-102.4v-102.4zM343.46496 700.19072h102.4v102.4h-102.4v-102.4zM497.06496 700.19072h102.4v102.4h-102.4v-102.4zM650.66496 700.19072h102.4v102.4h-102.4v-102.4z"  /></svg>